<svg width="132" height="113" viewBox="0 0 132 113" fill="none" xmlns="http://www.w3.org/2000/svg">
<path d="M58.9003 30.656C59.4123 30.656 60.0736 30.5493 60.8843 30.336C61.6949 30.1227 62.2923 29.9307 62.6763 29.76C63.0176 29.5893 63.2523 29.504 63.3803 29.504C63.5083 29.504 63.6576 29.5467 63.8283 29.632C64.0416 31.552 64.2763 33.408 64.5323 35.2C64.8309 36.992 65.1509 38.72 65.4923 40.384C65.4069 40.4693 65.2576 40.576 65.0443 40.704C64.8309 40.832 64.5749 40.8747 64.2763 40.832C63.8069 40.832 63.5083 40.7253 63.3803 40.512C62.9536 38.336 62.2496 36.5227 61.2683 35.072C60.2869 33.6213 59.0069 32.896 57.4283 32.896H49.4923V64.768C49.4923 65.7067 49.4923 66.5813 49.4923 67.392C49.5349 68.2027 49.6416 68.864 49.8123 69.376C49.8976 69.5893 50.2389 69.7813 50.8363 69.952C51.4336 70.1227 52.0523 70.2507 52.6923 70.336C53.3749 70.3787 53.8443 70.4 54.1003 70.4C54.2283 70.5707 54.2923 70.8693 54.2923 71.296C54.3349 71.7227 54.2709 72.0213 54.1003 72.192C52.8203 72.1067 51.5829 72.0427 50.3883 72C49.2363 71.9147 48.0416 71.872 46.8043 71.872C45.6096 71.872 44.3936 71.9147 43.1562 72C41.9189 72.0427 40.6603 72.1067 39.3803 72.192C39.2096 72.0213 39.1243 71.7227 39.1243 71.296C39.1669 70.8693 39.2523 70.5707 39.3803 70.4C39.6363 70.4 40.1056 70.3787 40.7883 70.336C41.4709 70.2507 42.1109 70.1227 42.7083 69.952C43.3483 69.7813 43.6896 69.5893 43.7323 69.376C43.9029 68.864 43.9883 68.2027 43.9883 67.392C44.0309 66.5813 44.0522 65.7067 44.0522 64.768V32.896H35.9883C34.4096 32.896 33.1296 33.6213 32.1483 35.072C31.1669 36.5227 30.4416 38.336 29.9723 40.512C29.8443 40.7253 29.5456 40.832 29.0763 40.832C28.7776 40.8747 28.5216 40.832 28.3083 40.704C28.1376 40.576 28.0096 40.4693 27.9243 40.384C28.2656 38.72 28.5643 36.992 28.8203 35.2C29.0763 33.408 29.3109 31.552 29.5243 29.632C29.7376 29.5467 29.9936 29.5467 30.2923 29.632C30.5909 29.6747 30.8256 29.7387 30.9963 29.824C31.3803 29.9947 31.9136 30.1867 32.5963 30.4C33.3216 30.5707 33.9403 30.656 34.4523 30.656H58.9003ZM79.7853 32.896C77.6946 32.896 75.9239 33.6213 74.4733 35.072C73.0226 36.5227 71.9559 38.528 71.2733 41.088C71.1453 41.2587 70.9106 41.344 70.5693 41.344C70.2706 41.344 69.9506 41.28 69.6093 41.152C69.2679 41.024 69.0546 40.9173 68.9693 40.832C69.5239 39.3813 69.9506 37.7813 70.2493 36.032C70.5906 34.24 70.8466 32.2987 71.0173 30.208C71.6999 30.2933 72.5106 30.4 73.4493 30.528C74.4306 30.6133 75.3266 30.656 76.1373 30.656H88.2973C90.0466 30.656 91.5826 30.6347 92.9053 30.592C94.2279 30.5493 95.5293 30.4853 96.8093 30.4C98.1319 30.3147 99.6679 30.208 101.417 30.08C101.545 30.1227 101.759 30.2933 102.057 30.592C102.356 30.8907 102.505 31.168 102.505 31.424C102.505 31.4667 102.121 32.064 101.353 33.216C100.585 34.3253 99.5613 35.7973 98.2812 37.632C97.0439 39.4667 95.6359 41.5147 94.0573 43.776C92.5213 46.0373 90.9213 48.384 89.2573 50.816C87.5933 53.248 85.9719 55.5947 84.3933 57.856C82.8146 60.0747 81.4066 62.1013 80.1693 63.936C78.9319 65.728 77.9293 67.1573 77.1613 68.224C76.4359 69.2907 76.0733 69.824 76.0733 69.824H92.3933C93.7586 69.824 94.8893 69.632 95.7853 69.248C96.7239 68.8213 97.5346 68.2667 98.2173 67.584C99.1133 66.688 99.7959 65.664 100.265 64.512C100.777 63.36 101.204 62.336 101.545 61.44C101.588 61.3547 101.695 61.312 101.865 61.312C102.036 61.2693 102.207 61.248 102.377 61.248C102.719 61.248 103.017 61.312 103.273 61.44C103.572 61.568 103.785 61.696 103.913 61.824C103.444 63.4453 103.017 64.832 102.633 65.984C102.292 67.0933 101.972 68.1173 101.673 69.056C101.417 69.952 101.161 70.9333 100.905 72H69.6093C69.2679 72 68.9479 71.8933 68.6493 71.68C68.3933 71.4667 68.3293 71.2747 68.4573 71.104L95.0173 32.896H79.7853Z" fill="#DDDDDD"/>
<path d="M12.0563 76.496C12.2483 76.496 12.4963 76.456 12.8003 76.376C13.1043 76.296 13.3283 76.224 13.4723 76.16C13.6003 76.096 13.6883 76.064 13.7363 76.064C13.7843 76.064 13.8403 76.08 13.9043 76.112C13.9843 76.832 14.0723 77.528 14.1683 78.2C14.2803 78.872 14.4003 79.52 14.5283 80.144C14.4963 80.176 14.4403 80.216 14.3603 80.264C14.2803 80.312 14.1843 80.328 14.0723 80.312C13.8963 80.312 13.7843 80.272 13.7363 80.192C13.5763 79.376 13.3123 78.696 12.9443 78.152C12.5763 77.608 12.0963 77.336 11.5043 77.336H8.52834V89.288C8.52834 89.64 8.52834 89.968 8.52834 90.272C8.54434 90.576 8.58434 90.824 8.64834 91.016C8.68034 91.096 8.80834 91.168 9.03234 91.232C9.25634 91.296 9.48834 91.344 9.72834 91.376C9.98434 91.392 10.1603 91.4 10.2563 91.4C10.3043 91.464 10.3283 91.576 10.3283 91.736C10.3443 91.896 10.3203 92.008 10.2563 92.072C9.77634 92.04 9.31234 92.016 8.86434 92C8.43234 91.968 7.98434 91.952 7.52034 91.952C7.07234 91.952 6.61634 91.968 6.15234 92C5.68834 92.016 5.21634 92.04 4.73634 92.072C4.67234 92.008 4.64034 91.896 4.64034 91.736C4.65634 91.576 4.68834 91.464 4.73634 91.4C4.83234 91.4 5.00834 91.392 5.26434 91.376C5.52034 91.344 5.76034 91.296 5.98434 91.232C6.22434 91.168 6.35234 91.096 6.36834 91.016C6.43234 90.824 6.46434 90.576 6.46434 90.272C6.48034 89.968 6.48834 89.64 6.48834 89.288V77.336H3.46434C2.87234 77.336 2.39234 77.608 2.02434 78.152C1.65634 78.696 1.38434 79.376 1.20834 80.192C1.16034 80.272 1.04834 80.312 0.872344 80.312C0.760344 80.328 0.664344 80.312 0.584344 80.264C0.520344 80.216 0.472344 80.176 0.440344 80.144C0.568344 79.52 0.680344 78.872 0.776344 78.2C0.872344 77.528 0.960344 76.832 1.04034 76.112C1.12034 76.08 1.21634 76.08 1.32834 76.112C1.44034 76.128 1.52834 76.152 1.59234 76.184C1.73634 76.248 1.93634 76.32 2.19234 76.4C2.46434 76.464 2.69634 76.496 2.88834 76.496H12.0563ZM18.6642 76.592C19.7682 76.592 20.9842 76.568 22.3122 76.52C23.6402 76.472 24.9362 76.448 26.2002 76.448C26.2802 77.04 26.3842 77.584 26.5122 78.08C26.6402 78.576 26.7602 79.088 26.8722 79.616C26.7922 79.696 26.6562 79.736 26.4642 79.736C26.2562 79.736 26.1442 79.68 26.1282 79.568C25.8722 78.624 25.5122 78.024 25.0482 77.768C24.5842 77.512 24.0402 77.384 23.4162 77.384H21.4002C21.3042 77.384 21.1282 77.392 20.8722 77.408C20.6162 77.408 20.3762 77.424 20.1522 77.456C19.9282 77.488 19.8002 77.544 19.7682 77.624C19.7202 77.784 19.6882 77.992 19.6722 78.248C19.6722 78.504 19.6722 78.768 19.6722 79.04C19.6722 79.152 19.6722 79.24 19.6722 79.304V83.672C19.6722 83.736 19.7762 83.776 19.9842 83.792C20.1922 83.808 20.4242 83.816 20.6802 83.816H21.9042C22.4642 83.816 22.8962 83.8 23.2002 83.768C23.5202 83.736 23.7522 83.664 23.8962 83.552C24.0402 83.44 24.1522 83.272 24.2322 83.048C24.3122 82.824 24.4002 82.52 24.4962 82.136C24.5122 82.024 24.6242 81.968 24.8322 81.968C25.0242 81.968 25.1602 82.008 25.2402 82.088V86.504C25.1762 86.568 25.0482 86.6 24.8562 86.6C24.6642 86.6 24.5442 86.544 24.4962 86.432C24.3842 85.984 24.2882 85.664 24.2082 85.472C24.1442 85.264 24.0802 85.128 24.0162 85.064C23.9682 84.984 23.9042 84.92 23.8242 84.872C23.7442 84.808 23.5602 84.768 23.2722 84.752C22.9842 84.72 22.6642 84.704 22.3122 84.704C21.9762 84.688 21.6562 84.68 21.3522 84.68C21.1442 84.68 20.9042 84.688 20.6322 84.704C20.3762 84.704 20.1522 84.72 19.9602 84.752C19.7682 84.768 19.6722 84.816 19.6722 84.896V89.36C19.6722 89.392 19.6722 89.44 19.6722 89.504C19.6722 89.728 19.6722 90.016 19.6722 90.368C19.6882 90.72 19.7282 90.92 19.7922 90.968C19.9522 91.08 20.1442 91.152 20.3682 91.184C20.6082 91.2 20.9762 91.208 21.4722 91.208H22.6002C23.1602 91.208 23.7122 91.152 24.2562 91.04C24.8002 90.928 25.2322 90.768 25.5522 90.56C25.9202 90.336 26.2082 90.016 26.4162 89.6C26.6242 89.168 26.8242 88.704 27.0162 88.208C27.0482 88.112 27.1602 88.064 27.3522 88.064C27.6402 88.064 27.8322 88.112 27.9282 88.208C27.7042 88.848 27.4562 89.528 27.1842 90.248C26.9282 90.968 26.7602 91.584 26.6802 92.096C25.4162 92.096 24.1602 92.08 22.9122 92.048C21.6642 92.016 20.2562 92 18.6882 92C18.1442 92 17.6562 92.008 17.2242 92.024C16.7922 92.056 16.3442 92.072 15.8802 92.072C15.8162 92.008 15.7842 91.896 15.7842 91.736C15.8002 91.576 15.8322 91.464 15.8802 91.4C15.9762 91.4 16.1522 91.392 16.4082 91.376C16.6642 91.344 16.9042 91.296 17.1282 91.232C17.3682 91.168 17.4962 91.096 17.5122 91.016C17.5762 90.824 17.6082 90.576 17.6082 90.272C17.6242 89.968 17.6322 89.64 17.6322 89.288V79.28C17.6322 78.928 17.6242 78.6 17.6082 78.296C17.6082 77.976 17.5762 77.72 17.5122 77.528C17.4962 77.432 17.3682 77.36 17.1282 77.312C16.9042 77.264 16.6642 77.232 16.4082 77.216C16.1522 77.184 15.9762 77.168 15.8802 77.168C15.8322 77.104 15.8002 76.992 15.7842 76.832C15.7842 76.672 15.8162 76.56 15.8802 76.496C16.3602 76.512 16.8322 76.536 17.2962 76.568C17.7602 76.584 18.2162 76.592 18.6642 76.592ZM30.814 88.736C30.814 88.736 30.886 88.544 31.03 88.16C31.19 87.76 31.398 87.224 31.654 86.552C31.91 85.88 32.198 85.136 32.518 84.32C32.854 83.488 33.19 82.64 33.526 81.776C33.862 80.896 34.182 80.056 34.486 79.256C34.806 78.456 35.086 77.752 35.326 77.144C35.39 77.016 35.526 76.872 35.734 76.712C35.958 76.552 36.126 76.472 36.238 76.472C36.27 76.472 36.286 76.48 36.286 76.496C36.302 76.496 36.326 76.504 36.358 76.52L41.134 89.048C41.486 89.976 41.686 90.488 41.734 90.584C41.814 90.76 41.966 90.912 42.19 91.04C42.43 91.168 42.662 91.264 42.886 91.328C43.126 91.376 43.278 91.4 43.342 91.4C43.406 91.48 43.43 91.608 43.414 91.784C43.398 91.944 43.382 92.04 43.366 92.072C42.902 92.04 42.486 92.016 42.118 92C41.75 91.968 41.31 91.952 40.798 91.952C40.254 91.952 39.798 91.968 39.43 92C39.078 92.016 38.63 92.04 38.086 92.072C38.022 92.008 37.99 91.896 37.99 91.736C38.006 91.576 38.046 91.464 38.11 91.4C38.254 91.4 38.478 91.376 38.782 91.328C39.086 91.264 39.294 91.184 39.406 91.088C39.47 91.024 39.502 90.912 39.502 90.752C39.502 90.608 39.446 90.368 39.334 90.032C39.238 89.68 39.11 89.288 38.95 88.856C38.79 88.424 38.63 88.008 38.47 87.608C38.31 87.192 38.174 86.856 38.062 86.6C37.966 86.328 37.918 86.192 37.918 86.192C37.918 86.192 37.902 86.176 37.87 86.144C37.838 86.112 37.806 86.096 37.774 86.096C37.534 86.08 37.238 86.072 36.886 86.072C36.534 86.072 36.206 86.072 35.902 86.072C35.822 86.072 35.742 86.072 35.662 86.072C35.582 86.072 35.51 86.072 35.446 86.072C34.966 86.072 34.558 86.08 34.222 86.096C33.886 86.096 33.454 86.112 32.926 86.144C32.91 86.144 32.886 86.16 32.854 86.192C32.822 86.208 32.806 86.216 32.806 86.216C32.806 86.216 32.742 86.376 32.614 86.696C32.502 87.016 32.358 87.4 32.182 87.848C32.022 88.28 31.878 88.688 31.75 89.072C31.606 89.472 31.51 89.808 31.462 90.08C31.43 90.352 31.414 90.568 31.414 90.728C31.414 90.904 31.534 91.048 31.774 91.16C32.03 91.256 32.286 91.32 32.542 91.352C32.814 91.384 32.982 91.4 33.046 91.4C33.078 91.432 33.102 91.536 33.118 91.712C33.134 91.872 33.126 91.992 33.094 92.072C32.79 92.056 32.526 92.04 32.302 92.024C32.094 92.008 31.878 91.992 31.654 91.976C31.446 91.96 31.166 91.952 30.814 91.952C30.462 91.952 30.166 91.96 29.926 91.976C29.686 91.992 29.446 92.008 29.206 92.024C28.966 92.04 28.662 92.056 28.294 92.072C28.262 92.04 28.246 91.944 28.246 91.784C28.246 91.608 28.262 91.48 28.294 91.4C28.438 91.4 28.678 91.368 29.014 91.304C29.366 91.224 29.598 91.104 29.71 90.944C29.95 90.64 30.15 90.304 30.31 89.936C30.486 89.552 30.654 89.152 30.814 88.736ZM35.398 79.304L33.262 85.016C33.262 85.016 33.262 85.032 33.262 85.064C33.278 85.096 33.294 85.112 33.31 85.112C33.614 85.128 33.974 85.144 34.39 85.16C34.822 85.16 35.166 85.16 35.422 85.16C35.79 85.16 36.118 85.152 36.406 85.136C36.71 85.12 37.038 85.104 37.39 85.088C37.422 85.088 37.438 85.072 37.438 85.04C37.454 84.992 37.462 84.968 37.462 84.968L35.398 79.304ZM47.0933 76.592C47.4933 76.592 47.8453 76.584 48.1493 76.568C48.4533 76.536 48.7333 76.512 48.9893 76.496C49.0853 76.8 49.2613 77.272 49.5173 77.912C49.7893 78.552 50.1013 79.312 50.4533 80.192C50.8213 81.056 51.2133 81.976 51.6293 82.952C52.0453 83.928 52.4533 84.904 52.8533 85.88C53.2533 86.84 53.6213 87.736 53.9573 88.568C53.9733 88.6 54.0053 88.616 54.0533 88.616C54.1013 88.616 54.1333 88.584 54.1493 88.52C54.6133 87.336 55.0293 86.272 55.3973 85.328C55.7653 84.368 56.1333 83.416 56.5013 82.472C56.8853 81.512 57.3013 80.456 57.7493 79.304C57.8933 78.936 58.0453 78.536 58.2053 78.104C58.3653 77.672 58.5013 77.296 58.6133 76.976C58.7253 76.656 58.7813 76.496 58.7813 76.496C59.5333 76.544 60.1493 76.568 60.6293 76.568C61.0453 76.568 61.5093 76.56 62.0213 76.544C62.5493 76.528 62.9573 76.512 63.2453 76.496C63.2613 76.528 63.2773 76.648 63.2933 76.856C63.3093 77.064 63.3173 77.168 63.3173 77.168C63.2053 77.168 63.0213 77.184 62.7653 77.216C62.5253 77.248 62.2933 77.296 62.0693 77.36C61.8453 77.424 61.7093 77.496 61.6613 77.576C61.6133 77.688 61.5813 77.832 61.5653 78.008C61.5493 78.184 61.5413 78.344 61.5413 78.488C61.5573 78.888 61.5733 79.496 61.5893 80.312C61.6053 81.128 61.6213 82.048 61.6373 83.072C61.6693 84.08 61.6933 85.08 61.7093 86.072C61.7413 87.064 61.7653 87.944 61.7813 88.712C61.7973 89.16 61.8213 89.584 61.8533 89.984C61.8853 90.384 61.9573 90.72 62.0693 90.992C62.1173 91.104 62.2613 91.192 62.5013 91.256C62.7413 91.304 62.9813 91.344 63.2213 91.376C63.4773 91.392 63.6373 91.4 63.7013 91.4C63.7653 91.512 63.7893 91.648 63.7733 91.808C63.7733 91.952 63.7653 92.04 63.7493 92.072C63.2853 92.04 62.8293 92.016 62.3813 92C61.9493 91.968 61.4773 91.952 60.9653 91.952C60.4213 91.952 59.9493 91.968 59.5493 92C59.1493 92.016 58.6773 92.04 58.1333 92.072C58.1173 92.04 58.1013 91.944 58.0853 91.784C58.0693 91.624 58.0853 91.496 58.1333 91.4C58.2293 91.4 58.3813 91.392 58.5893 91.376C58.7973 91.344 59.0053 91.312 59.2133 91.28C59.4213 91.232 59.5733 91.184 59.6693 91.136C59.7493 91.088 59.8053 90.952 59.8373 90.728C59.8693 90.504 59.8853 90.312 59.8853 90.152C59.8853 89.976 59.8773 89.752 59.8613 89.48C59.8453 89.192 59.8373 88.96 59.8373 88.784C59.8053 87.648 59.7733 86.56 59.7413 85.52C59.7093 84.464 59.6773 83.392 59.6453 82.304C59.6133 81.2 59.5733 80.016 59.5253 78.752C59.5253 78.704 59.5093 78.616 59.4773 78.488C59.4453 78.36 59.3893 78.296 59.3093 78.296C59.2773 78.296 59.2373 78.352 59.1893 78.464C58.7093 79.664 58.2613 80.776 57.8453 81.8C57.4453 82.824 57.0533 83.816 56.6693 84.776C56.2853 85.72 55.8933 86.688 55.4933 87.68C55.1093 88.656 54.6933 89.712 54.2453 90.848C54.2133 90.912 54.1413 91.04 54.0293 91.232C53.9173 91.424 53.7973 91.608 53.6693 91.784C53.5573 91.944 53.4533 92.032 53.3573 92.048C53.3253 92.064 53.2693 92.056 53.1893 92.024C53.1733 92.008 53.1573 92 53.1413 92L47.4293 78.32C47.4133 79.344 47.3893 80.4 47.3573 81.488C47.3253 82.576 47.2933 83.632 47.2613 84.656C47.2453 85.68 47.2213 86.608 47.1893 87.44C47.1733 88.256 47.1573 88.92 47.1413 89.432C47.1253 89.928 47.1173 90.2 47.1173 90.248C47.1173 90.36 47.1253 90.488 47.1413 90.632C47.1573 90.76 47.1813 90.872 47.2133 90.968C47.2613 91.08 47.4213 91.168 47.6933 91.232C47.9813 91.296 48.2693 91.344 48.5573 91.376C48.8453 91.392 49.0213 91.4 49.0853 91.4C49.1493 91.464 49.1733 91.584 49.1573 91.76C49.1413 91.936 49.1253 92.04 49.1093 92.072C48.6453 92.04 48.2453 92.016 47.9093 92C47.5733 91.968 47.1493 91.952 46.6373 91.952C46.0933 91.952 45.6373 91.968 45.2693 92C44.9013 92.016 44.4453 92.04 43.9013 92.072C43.8853 92.04 43.8693 91.944 43.8533 91.784C43.8373 91.624 43.8533 91.496 43.9013 91.4C43.9973 91.4 44.1813 91.384 44.4533 91.352C44.7413 91.32 45.0213 91.272 45.2933 91.208C45.5653 91.144 45.7333 91.064 45.7973 90.968C45.9093 90.808 45.9813 90.64 46.0133 90.464C46.0453 90.272 46.0693 90.048 46.0853 89.792C46.1333 88.384 46.1733 87.032 46.2053 85.736C46.2533 84.44 46.2853 83.28 46.3013 82.256C46.3333 81.216 46.3573 80.376 46.3733 79.736C46.3893 79.08 46.3973 78.696 46.3973 78.584C46.3973 78.408 46.3893 78.24 46.3733 78.08C46.3733 77.92 46.3493 77.776 46.3013 77.648C46.2693 77.552 46.1333 77.472 45.8933 77.408C45.6693 77.328 45.4293 77.272 45.1733 77.24C44.9333 77.192 44.7653 77.168 44.6693 77.168C44.6533 77.168 44.6453 77.064 44.6453 76.856C44.6453 76.632 44.6533 76.512 44.6693 76.496C45.0373 76.512 45.3333 76.528 45.5573 76.544C45.7813 76.56 46.0053 76.576 46.2293 76.592C46.4533 76.592 46.7413 76.592 47.0933 76.592ZM76.5835 77.336C75.7995 77.336 75.1355 77.608 74.5915 78.152C74.0475 78.696 73.6475 79.448 73.3915 80.408C73.3435 80.472 73.2555 80.504 73.1275 80.504C73.0155 80.504 72.8955 80.48 72.7675 80.432C72.6395 80.384 72.5595 80.344 72.5275 80.312C72.7355 79.768 72.8955 79.168 73.0075 78.512C73.1355 77.84 73.2315 77.112 73.2955 76.328C73.5515 76.36 73.8555 76.4 74.2075 76.448C74.5755 76.48 74.9115 76.496 75.2155 76.496H79.7755C80.4315 76.496 81.0075 76.488 81.5035 76.472C81.9995 76.456 82.4875 76.432 82.9675 76.4C83.4635 76.368 84.0395 76.328 84.6955 76.28C84.7435 76.296 84.8235 76.36 84.9355 76.472C85.0475 76.584 85.1035 76.688 85.1035 76.784C85.1035 76.8 84.9595 77.024 84.6715 77.456C84.3835 77.872 83.9995 78.424 83.5195 79.112C83.0555 79.8 82.5275 80.568 81.9355 81.416C81.3595 82.264 80.7595 83.144 80.1355 84.056C79.5115 84.968 78.9035 85.848 78.3115 86.696C77.7195 87.528 77.1915 88.288 76.7275 88.976C76.2635 89.648 75.8875 90.184 75.5995 90.584C75.3275 90.984 75.1915 91.184 75.1915 91.184H81.3115C81.8235 91.184 82.2475 91.112 82.5835 90.968C82.9355 90.808 83.2395 90.6 83.4955 90.344C83.8315 90.008 84.0875 89.624 84.2635 89.192C84.4555 88.76 84.6155 88.376 84.7435 88.04C84.7595 88.008 84.7995 87.992 84.8635 87.992C84.9275 87.976 84.9915 87.968 85.0555 87.968C85.1835 87.968 85.2955 87.992 85.3915 88.04C85.5035 88.088 85.5835 88.136 85.6315 88.184C85.4555 88.792 85.2955 89.312 85.1515 89.744C85.0235 90.16 84.9035 90.544 84.7915 90.896C84.6955 91.232 84.5995 91.6 84.5035 92H72.7675C72.6395 92 72.5195 91.96 72.4075 91.88C72.3115 91.8 72.2875 91.728 72.3355 91.664L82.2955 77.336H76.5835ZM90.1955 76.592C91.2995 76.592 92.5155 76.568 93.8435 76.52C95.1715 76.472 96.4675 76.448 97.7315 76.448C97.8115 77.04 97.9155 77.584 98.0435 78.08C98.1715 78.576 98.2915 79.088 98.4035 79.616C98.3235 79.696 98.1875 79.736 97.9955 79.736C97.7875 79.736 97.6755 79.68 97.6595 79.568C97.4035 78.624 97.0435 78.024 96.5795 77.768C96.1155 77.512 95.5715 77.384 94.9475 77.384H92.9315C92.8355 77.384 92.6595 77.392 92.4035 77.408C92.1475 77.408 91.9075 77.424 91.6835 77.456C91.4595 77.488 91.3315 77.544 91.2995 77.624C91.2515 77.784 91.2195 77.992 91.2035 78.248C91.2035 78.504 91.2035 78.768 91.2035 79.04C91.2035 79.152 91.2035 79.24 91.2035 79.304V83.672C91.2035 83.736 91.3075 83.776 91.5155 83.792C91.7235 83.808 91.9555 83.816 92.2115 83.816H93.4355C93.9955 83.816 94.4275 83.8 94.7315 83.768C95.0515 83.736 95.2835 83.664 95.4275 83.552C95.5715 83.44 95.6835 83.272 95.7635 83.048C95.8435 82.824 95.9315 82.52 96.0275 82.136C96.0435 82.024 96.1555 81.968 96.3635 81.968C96.5555 81.968 96.6915 82.008 96.7715 82.088V86.504C96.7075 86.568 96.5795 86.6 96.3875 86.6C96.1955 86.6 96.0755 86.544 96.0275 86.432C95.9155 85.984 95.8195 85.664 95.7395 85.472C95.6755 85.264 95.6115 85.128 95.5475 85.064C95.4995 84.984 95.4355 84.92 95.3555 84.872C95.2755 84.808 95.0915 84.768 94.8035 84.752C94.5155 84.72 94.1955 84.704 93.8435 84.704C93.5075 84.688 93.1875 84.68 92.8835 84.68C92.6755 84.68 92.4355 84.688 92.1635 84.704C91.9075 84.704 91.6835 84.72 91.4915 84.752C91.2995 84.768 91.2035 84.816 91.2035 84.896V89.36C91.2035 89.392 91.2035 89.44 91.2035 89.504C91.2035 89.728 91.2035 90.016 91.2035 90.368C91.2195 90.72 91.2595 90.92 91.3235 90.968C91.4835 91.08 91.6755 91.152 91.8995 91.184C92.1395 91.2 92.5075 91.208 93.0035 91.208H94.1315C94.6915 91.208 95.2435 91.152 95.7875 91.04C96.3315 90.928 96.7635 90.768 97.0835 90.56C97.4515 90.336 97.7395 90.016 97.9475 89.6C98.1555 89.168 98.3555 88.704 98.5475 88.208C98.5795 88.112 98.6915 88.064 98.8835 88.064C99.1715 88.064 99.3635 88.112 99.4595 88.208C99.2355 88.848 98.9875 89.528 98.7155 90.248C98.4595 90.968 98.2915 91.584 98.2115 92.096C96.9475 92.096 95.6915 92.08 94.4435 92.048C93.1955 92.016 91.7875 92 90.2195 92C89.6755 92 89.1875 92.008 88.7555 92.024C88.3235 92.056 87.8755 92.072 87.4115 92.072C87.3475 92.008 87.3155 91.896 87.3155 91.736C87.3315 91.576 87.3635 91.464 87.4115 91.4C87.5075 91.4 87.6835 91.392 87.9395 91.376C88.1955 91.344 88.4355 91.296 88.6595 91.232C88.8995 91.168 89.0275 91.096 89.0435 91.016C89.1075 90.824 89.1395 90.576 89.1395 90.272C89.1555 89.968 89.1635 89.64 89.1635 89.288V79.28C89.1635 78.928 89.1555 78.6 89.1395 78.296C89.1395 77.976 89.1075 77.72 89.0435 77.528C89.0275 77.432 88.8995 77.36 88.6595 77.312C88.4355 77.264 88.1955 77.232 87.9395 77.216C87.6835 77.184 87.5075 77.168 87.4115 77.168C87.3635 77.104 87.3315 76.992 87.3155 76.832C87.3155 76.672 87.3475 76.56 87.4115 76.496C87.8915 76.512 88.3635 76.536 88.8275 76.568C89.2915 76.584 89.7475 76.592 90.1955 76.592ZM107.265 76.544C107.793 76.544 108.337 76.632 108.897 76.808C109.457 76.984 109.969 77.24 110.433 77.576C110.913 77.912 111.297 78.336 111.585 78.848C111.873 79.344 112.017 79.928 112.017 80.6C112.017 81.16 111.857 81.704 111.537 82.232C111.233 82.76 110.833 83.224 110.337 83.624C109.857 84.024 109.353 84.312 108.825 84.488C109.241 85.176 109.641 85.808 110.025 86.384C110.409 86.96 110.809 87.536 111.225 88.112C111.641 88.672 112.105 89.296 112.617 89.984C112.953 90.432 113.313 90.768 113.697 90.992C114.097 91.216 114.617 91.352 115.257 91.4C115.321 91.464 115.337 91.584 115.305 91.76C115.273 91.936 115.249 92.04 115.233 92.072C114.449 92.072 113.793 92.048 113.265 92C112.753 91.936 112.377 91.864 112.137 91.784C111.977 91.72 111.753 91.624 111.465 91.496C111.177 91.352 110.897 91.104 110.625 90.752C110.529 90.624 110.353 90.376 110.097 90.008C109.841 89.64 109.537 89.192 109.185 88.664C108.833 88.136 108.457 87.576 108.057 86.984C107.657 86.376 107.273 85.784 106.905 85.208C106.777 85.016 106.537 84.92 106.185 84.92H104.961V89.288C104.961 89.336 104.961 89.384 104.961 89.432C104.961 89.48 104.961 89.528 104.961 89.576C104.961 89.88 104.961 90.16 104.961 90.416C104.977 90.656 105.009 90.856 105.057 91.016C105.089 91.096 105.217 91.168 105.441 91.232C105.665 91.296 105.905 91.344 106.161 91.376C106.417 91.392 106.593 91.4 106.689 91.4C106.737 91.464 106.761 91.576 106.761 91.736C106.777 91.896 106.753 92.008 106.689 92.072C106.209 92.04 105.745 92.016 105.297 92C104.865 91.968 104.417 91.952 103.953 91.952C103.505 91.952 103.049 91.968 102.585 92C102.121 92.016 101.649 92.04 101.169 92.072C101.105 92.008 101.073 91.896 101.073 91.736C101.089 91.576 101.121 91.464 101.169 91.4C101.265 91.4 101.441 91.392 101.697 91.376C101.953 91.344 102.193 91.296 102.417 91.232C102.657 91.168 102.785 91.096 102.801 91.016C102.865 90.824 102.897 90.576 102.897 90.272C102.913 89.968 102.921 89.64 102.921 89.288L102.897 79.28C102.897 78.928 102.889 78.6 102.873 78.296C102.873 77.976 102.841 77.72 102.777 77.528C102.761 77.432 102.633 77.36 102.393 77.312C102.169 77.264 101.929 77.232 101.673 77.216C101.433 77.184 101.265 77.168 101.169 77.168C101.121 77.104 101.089 76.992 101.073 76.832C101.073 76.672 101.105 76.56 101.169 76.496C101.649 76.512 102.113 76.536 102.561 76.568C103.025 76.584 103.481 76.592 103.929 76.592C104.393 76.592 104.889 76.584 105.417 76.568C105.961 76.552 106.577 76.544 107.265 76.544ZM109.833 80.816C109.833 79.792 109.553 78.952 108.993 78.296C108.449 77.64 107.529 77.312 106.233 77.312C106.089 77.312 105.865 77.32 105.561 77.336C105.273 77.352 105.105 77.416 105.057 77.528C104.993 77.672 104.953 77.92 104.937 78.272C104.937 78.608 104.937 78.952 104.937 79.304L104.961 84.2H106.209C106.817 84.2 107.393 84.064 107.937 83.792C108.497 83.504 108.953 83.112 109.305 82.616C109.657 82.104 109.833 81.504 109.833 80.816ZM123.052 76.376C124.092 76.376 125.068 76.568 125.98 76.952C126.908 77.336 127.724 77.888 128.428 78.608C129.132 79.312 129.684 80.152 130.084 81.128C130.5 82.088 130.708 83.152 130.708 84.32C130.708 85.424 130.5 86.456 130.084 87.416C129.684 88.36 129.132 89.2 128.428 89.936C127.724 90.656 126.908 91.224 125.98 91.64C125.068 92.04 124.092 92.24 123.052 92.24C122.028 92.24 121.052 92.048 120.124 91.664C119.212 91.28 118.404 90.736 117.7 90.032C117.012 89.312 116.468 88.472 116.068 87.512C115.668 86.536 115.468 85.472 115.468 84.32C115.468 83.216 115.668 82.184 116.068 81.224C116.468 80.264 117.012 79.424 117.7 78.704C118.404 77.968 119.212 77.4 120.124 77C121.052 76.584 122.028 76.376 123.052 76.376ZM122.716 77.168C121.836 77.168 121.084 77.368 120.46 77.768C119.836 78.152 119.324 78.664 118.924 79.304C118.54 79.944 118.252 80.656 118.06 81.44C117.884 82.224 117.796 83.008 117.796 83.792C117.796 84.704 117.916 85.616 118.156 86.528C118.412 87.424 118.78 88.248 119.26 89C119.74 89.736 120.324 90.328 121.012 90.776C121.716 91.224 122.524 91.448 123.436 91.448C124.316 91.448 125.068 91.256 125.692 90.872C126.316 90.472 126.828 89.944 127.228 89.288C127.628 88.632 127.916 87.912 128.092 87.128C128.284 86.328 128.38 85.536 128.38 84.752C128.38 83.84 128.252 82.936 127.996 82.04C127.756 81.144 127.388 80.328 126.892 79.592C126.412 78.856 125.82 78.272 125.116 77.84C124.428 77.392 123.628 77.168 122.716 77.168Z" fill="#00ADB5"/>
</svg>
